#!OML:ASF E:/inclinewalkrobotboard/Project1/Captureday1/Session1/subject1.ASF
:FULLY-SPECIFIED
:DEGREES
1
root 0 0 0 -3.13109704593073 -6.35122404862997 0.17039382962726962
lowerback 8.411325493807244 0.7717724828673818 -2.5640658573540307
upperback 0.4177291548427832 0.8195234759427257 -0.061784437684965776
thorax -4.384784779071834 0.42679893732868446 1.3045214260172786
lowerneck -11.063165650499915 -5.460394961690465 -5.665636070738833
upperneck 25.87053246177166 -8.186955781509914 5.631717785478525
head 9.997672297186389 -3.7263560188311615 1.9663739139749432
rclavicle -3.008358543603224E-15 8.3073534535577155E-16
rhumerus 0.6403831026295741 -1.2693679638581639 -74.80061403019592
rradius 60.15478184262187
rwrist -15.503540319571318
rhand -42.630421370403894 15.693155206657893
rfingers 7.125019999999936
rthumb -15.418266315613339 -13.643656609322392
lclavicle -4.820810977259235E-15 1.5127639197804685E-16
lhumerus -30.60455404273334 11.419255048439872 77.7567001036055
lradius 24.66908517372796
lwrist -5.015541573737835
lhand -23.654171726149283 22.08959385634401
lfingers 7.125019999999955
lthumb 2.812895707467864 52.027550112408754
rfemur -22.32477812697631 6.58066367611061 31.86384798801648
rtibia 38.768442340377675
rfoot -7.166281394342901 -5.669897705999433
rtoes 13.50995609424729
lfemur -7.930337450433017 0.5146155541731332 -16.141465781945605
ltibia 63.436635569725226
lfoot 10.088611636721954 -13.164751774155656
ltoes -4.522661067989605
2
root 0 0 0 -2.9456203612019682 -5.2765345270526165 0.26366510698172635
lowerback 7.636886044143055 1.128877877258839 -2.4330340547494065
upperback 0.8620792188752073 1.3405648911541508 -0.03410657342472001
thorax -3.4503807239866635 0.6971944110717798 1.246523126575755
lowerneck -10.515409974383711 -5.327297686935386 -5.760734296958742
upperneck 29.239960246523975 -8.260534069265084 5.283546069829471
head 11.019330831294248 -3.748344229719765 1.7751695142591513
rclavicle -2.811365157745123E-15 8.314031291947039E-16
rhumerus -5.562028254847032 1.5854829822765781 -77.81649104146548
rradius 54.93811902286185
rwrist -19.589334020106257
rhand -41.97769358019571 14.582567195407826
rfingers 7.125019999999942
rthumb -14.823368503618859 -14.821417279265816
lclavicle -5.106942063282382E-15 -4.910195883497929E-17
lhumerus -30.434886434851915 11.138899327967845 78.12252599820768
lradius 24.753176895624577
lwrist -4.882336348409705
lhand -23.46281515437741 22.183463432348013
lfingers 7.12501999999995
lthumb 2.9967461220752725 52.11754903963153
rfemur -20.19700795959509 6.844018056748372 32.47457184332889
rtibia 37.539859155006276
rfoot -9.694221199303712 -6.455969224760196
rtoes 12.309780905360988
lfemur -15.576345576192491 2.6903903605868464 -14.45964380765435
ltibia 67.84313163932566
lfoot 3.54648691518433 -9.408278211927263
ltoes -7.2148979764028836
3
root 0 0 0 -2.813015034467994 -4.428393011924404 0.3300367398045882
lowerback 6.993782824206637 1.4160610000439688 -2.2738369605069733
upperback 1.218690386509263 1.7649137003053252 -0.04878802393315651
thorax -2.6841938883960283 0.916746165914333 1.1320793574052526
lowerneck -9.967450437969244 -5.2388607212652465 -5.906458740530146
upperneck 30.79329051759361 -8.279364126953926 5.163998342835575
head 11.521911571766761 -3.7551216914313557 1.6937782778150194
rclavicle -3.3488571408404132E-15 9.943856368278345E-16
rhumerus -8.466317014947801 3.5390968679823773 -79.00606256927846
rradius 54.04472681978101
rwrist -21.175752920378507
rhand -41.64843425950314 14.170675601085364
rfingers 7.125019999999946
rthumb -14.52429853475045 -15.26580101350028
lclavicle -5.8468892744400326E-15 1.8335051023275547E-16
lhumerus -30.370791271947443 10.970349563903486 78.2922448271875
lradius 24.782522026094785
lwrist -4.829594139414585
lhand -23.340918761068725 22.251007056238187
lfingers 7.125019999999948
lthumb 3.1138055845040546 52.1820598020703
rfemur -14.757507363547074 7.207875734813908 33.218674595886235
rtibia 34.76897063542786
rfoot -13.887179401562777 -7.4079973996290205
rtoes 10.474244256697347
lfemur -21.933986671538257 4.24059573170293 -13.456062113727
ltibia 68.95688838082256
lfoot -1.6583182827444638 -6.533066469726032
ltoes -8.117773906255561
4
root 0 0 0 -2.6823281045385845 -4.204508951339448 0.3913537276480406
lowerback 6.900322490764348 1.5005172596204908 -2.3099535738677504
upperback 1.4597265846160954 1.8824765310750742 -0.05652614271901646
thorax -2.3705849074092282 0.9822230358429413 1.1413174713156695
lowerneck -9.566871808542722 -5.293126936161756 -6.064262724129039
upperneck 31.286513831778823 -8.40908756210446 5.303343315509782
head 11.671762929778849 -3.819564909229875 1.7243272878052438
rclavicle -3.885070117942797E-15 1.4209394915160578E-15
rhumerus -9.869623656275404 4.701046394880115 -79.5569887676692
rradius 54.05168903845899
rwrist -21.727965222534213
rhand -41.59576509995367 14.193174307478584
rfingers 7.12501999999995
rthumb -14.482400684227247 -15.253648300088996
lclavicle -6.630673628247619E-15 8.45145379207318E-16
lhumerus -30.418374835691036 10.931419848305278 78.2552627770464
lradius 24.77833586370842
lwrist -4.827994367970828
lhand -23.330228479790495 22.277892651524333
lfingers 7.125019999999948
lthumb 3.123667544965275 52.207315713257685
rfemur -6.93252676346889 7.659705846941881 34.16471849969036
rtibia 31.0267171794858
rfoot -18.09268346764443 -8.05941054057186
rtoes 8.222658981876366
lfemur -24.965514126443207 4.515022453239645 -13.178465142510799
ltibia 66.80845130860973
lfoot -3.9383636860372775 -5.122652137157436
ltoes -7.991832859392246
5
root 0 0 0 -2.533512416034764 -4.0919506406545425 0.4444453768368191
lowerback 6.972090123360801 1.5439694067363277 -2.3761559705179383
upperback 1.6622402827651315 1.9346108602876528 -0.06727302226388987
thorax -2.1968408370375774 1.0144336931819602 1.1636533828861846
lowerneck -9.228125696721175 -5.37194111072577 -6.224633506649032
upperneck 31.357757242851257 -8.532078373894263 5.534270227924384
head 11.683090809387751 -3.8835390389780406 1.8003192387429767
rclavicle -4.031279461267013E-15 1.777346748083632E-15
rhumerus -10.599130843841145 5.315816593830232 -79.87041377604776
rradius 54.118838078913925
rwrist -21.860905798290364
rhand -41.67703922717121 14.338613011846075
rfingers 7.125019999999954
rthumb -14.56401937721212 -15.106843157160615
lclavicle -7.0885125805876525E-15 1.3728659249317798E-15
lhumerus -30.540112032537053 11.003370754777773 78.06575340823053
lradius 24.753313296636037
lwrist -4.861229503372254
lhand -23.414092316333512 22.268748130613545
lfingers 7.125019999999949
lthumb 3.0424202541972365 52.197997287706535
rfemur -0.6811569650314824 8.081326890040566 34.709675652550914
rtibia 27.74519672283673
rfoot -20.687791724843937 -8.481442022383053
rtoes 6.372926255010704
lfemur -27.324016385816584 4.089458060461988 -12.933817965295791
ltibia 62.236108213247284
lfoot -5.077874740169261 -3.9550845260091645
ltoes -7.6465378928582055
6
root 0 0 0 -2.3755476470414276 -3.980442268480109 0.4885930894989758
lowerback 7.105366289320829 1.582045388820085 -2.4382180659003696
upperback 1.8339877448262394 1.9763396376278546 -0.08179565894994267
thorax -2.093425939370676 1.0404128153429224 1.178004721633247
lowerneck -8.96324865846391 -5.446449390847962 -6.372510152388813
upperneck 31.22756348122545 -8.625048619398488 5.796223807944856
head 11.633461461274075 -3.9337464600275607 1.896479747363923
rclavicle -3.8096452664126534E-15 1.892808923850092E-15
rhumerus -10.94713920427709 5.554268660884547 -80.04562879646173
rradius 53.98930733097101
rwrist -21.845478776694737
rhand -41.75884936395597 14.527064585759064
rfingers 7.125019999999957
rthumb -14.643527059454659 -14.91509808169638
lclavicle -7.197359154283462E-15 1.5898035994013672E-15
lhumerus -30.682480717725536 11.151972958218426 77.81153650788643
lradius 24.727502873866104
lwrist -4.899821111938122
lhand -23.566887625023693 22.22145384554892
lfingers 7.12501999999995
lthumb 2.894997870393611 52.151663703104305
rfemur 2.118449297164281 8.341474782447701 34.78915610732267
rtibia 26.088064469074762
rfoot -21.601643534713965 -8.833232059121379
rtoes 5.271957317689276
lfemur -29.789174863703202 3.301112819104631 -12.635209895114286
ltibia 55.81976110721568
lfoot -5.86666307280637 -2.802670913256046
ltoes -7.237691328463484
7
root 0 0 0 -2.232671317437883 -3.865923847449939 0.5200876483563792
lowerback 7.259835305479368 1.6147717084503515 -2.49121599317799
upperback 1.9583768544240616 2.010780203947273 -0.09523435033379923
thorax -2.05383112232004 1.0610214613758664 1.1870500037689378
lowerneck -8.815440493176087 -5.509780188223549 -6.491922832623297
upperneck 31.04164336023223 -8.689398232507315 6.035319984332354
head 11.574315668613382 -3.9686277118987934 1.9890219285255237
rclavicle -3.150289568622934E-15 1.8148982624998413E-15
rhumerus -10.947369243644236 5.382743616876834 -80.11770455245349
rradius 53.37754048815658
rwrist -21.7428062247764
rhand -41.81140918905565 14.832597254331077
rfingers 7.125019999999957
rthumb -14.691010808146052 -14.607066473171074
lclavicle -6.908413626436624E-15 1.56398113973894E-15
lhumerus -30.842511069028152 11.362869978801927 77.50643887814034
lradius 24.69989978270458
lwrist -4.941163785828651
lhand -23.778945952636494 22.138840819835586
lfingers 7.125019999999953
lthumb 2.6909947031235557 52.071032218171936
rfemur 3.3703481549279517 8.485460412668273 34.75051763858155
rtibia 25.487944051128963
rfoot -21.75994238372895 -9.060406133031444
rtoes 4.344049189084538
lfemur -32.098885984520486 2.0395747115645495 -12.420127347096688
ltibia 46.64712037183126
lfoot -6.306149850248677 -2.005318107217617
ltoes -6.525494206452885
8
root 0 0 0 -2.1466644134438093 -3.7852916192975785 0.5316802026598857
lowerback 7.381351964601275 1.6308340078391035 -2.522301673101626
upperback 2.008699023084281 2.0266442457817635 -0.09898988497659589
thorax -2.0737033917445005 1.0699161222840332 1.195618138080489
lowerneck -8.812612453720217 -5.545898576776171 -6.54785127450214
upperneck 30.92559022885532 -8.71658927626633 6.169331600905489
head 11.544734232533113 -3.982859495969371 2.043558461351556
rclavicle -2.7252830378145573E-15 1.7330682366426106E-15
rhumerus -10.761518643462153 5.065696685738944 -80.10308932320031
rradius 52.74312132663964
rwrist -21.65126151875573
rhand -41.81699995985808 15.073988615847975
rfingers 7.125019999999955
rthumb -14.692345659267364 -14.364638323115457
lclavicle -6.7076491387716286E-15 1.5340518427828587E-15
lhumerus -30.955514265888176 11.601474736587145 77.24963211020288
lradius 24.697122648071975
lwrist -4.950360000158751
lhand -24.020802947092058 22.02934373298526
lfingers 7.125019999999955
lthumb 2.458343719658009 51.964361074893404
rfemur 3.802217427788483 8.527675207871503 34.737386441702284
rtibia 25.568300749391785
rfoot -21.548733241049522 -9.042396658216646
rtoes 3.646603835195722
lfemur -32.79766060521481 1.2719570617048515 -12.496592818984656
ltibia 41.443692414423865
lfoot -6.019665975448757 -2.177196370308268
ltoes -5.940102467164318
